<?xml version="1.0" encoding="UTF-8" standalone="no"?>
<!-- Created with Inkscape (http://www.inkscape.org/) -->

<svg
   xmlns:dc="http://purl.org/dc/elements/1.1/"
   xmlns:cc="http://creativecommons.org/ns#"
   xmlns:rdf="http://www.w3.org/1999/02/22-rdf-syntax-ns#"
   xmlns:svg="http://www.w3.org/2000/svg"
   xmlns="http://www.w3.org/2000/svg"
   xmlns:sodipodi="http://sodipodi.sourceforge.net/DTD/sodipodi-0.dtd"
   xmlns:inkscape="http://www.inkscape.org/namespaces/inkscape"
   width="112.00006"
   height="112.00018"
   viewBox="0 0 29.633353 29.633378"
   version="1.1"
   id="svg8"
   inkscape:version="0.92.3 (2405546, 2018-03-11)"
   sodipodi:docname="simple.svg"
   inkscape:export-filename="/home/julian/Documents/M2/Refresher/jigsaw/img/simple.png"
   inkscape:export-xdpi="95.999924"
   inkscape:export-ydpi="95.999924">
  <defs
     id="defs2" />
  <sodipodi:namedview
     id="base"
     pagecolor="#ffffff"
     bordercolor="#666666"
     borderopacity="1.0"
     inkscape:pageopacity="0.0"
     inkscape:pageshadow="2"
     inkscape:zoom="4"
     inkscape:cx="65.9195"
     inkscape:cy="72.118459"
     inkscape:document-units="mm"
     inkscape:current-layer="layer1"
     showgrid="false"
     inkscape:window-width="1920"
     inkscape:window-height="1012"
     inkscape:window-x="0"
     inkscape:window-y="0"
     inkscape:window-maximized="1"
     fit-margin-top="0"
     fit-margin-left="0"
     fit-margin-right="0"
     fit-margin-bottom="0"
     units="px" />
  <metadata
     id="metadata5">
    <rdf:RDF>
      <cc:Work
         rdf:about="">
        <dc:format>image/svg+xml</dc:format>
        <dc:type
           rdf:resource="http://purl.org/dc/dcmitype/StillImage" />
        <dc:title></dc:title>
      </cc:Work>
    </rdf:RDF>
  </metadata>
  <g
     inkscape:label="Calque 1"
     inkscape:groupmode="layer"
     id="layer1"
     transform="translate(254.3023,-103.76499)">
    <rect
       style="opacity:1;vector-effect:none;fill:#b3b3b3;fill-opacity:1;stroke:none;stroke-width:0.26458332;stroke-linecap:round;stroke-linejoin:miter;stroke-miterlimit:4;stroke-dasharray:none;stroke-dashoffset:0;stroke-opacity:1"
       id="rect2585"
       width="29.633333"
       height="29.633333"
       x="-254.30228"
       y="-133.39835"
       transform="scale(1,-1)" />
    <g
       id="g2504"
       style="fill:#5fd38d">
      <path
         inkscape:connector-curvature="0"
         id="path2114-1-71"
         d="m -245.83562,112.23168 -1.05833,-1.05833 -1.05834,1.05833 v 5.29167 l 1.05834,1.05833 1.05833,-1.05833 z"
         style="fill:#5fd38d;stroke:none;stroke-width:0.26458332px;stroke-linecap:butt;stroke-linejoin:miter;stroke-opacity:1" />
      <path
         inkscape:connector-curvature="0"
         id="path2114-1-76"
         d="m -253.24396,117.52335 -1.05833,1.05833 1.05833,1.05834 h 5.29167 l 1.05833,-1.05834 -1.05833,-1.05833 z"
         style="fill:#5fd38d;stroke:none;stroke-width:0.26458332px;stroke-linecap:butt;stroke-linejoin:miter;stroke-opacity:1" />
    </g>
    <g
       id="g2508"
       style="fill:#165016">
      <path
         inkscape:connector-curvature="0"
         id="path2114-1-71-9"
         d="m -238.42729,112.23168 -1.05833,-1.05833 -1.05834,1.05833 v 5.29167 l 1.05834,1.05833 1.05833,-1.05833 z"
         style="fill:#165016;stroke:none;stroke-width:0.26458332px;stroke-linecap:butt;stroke-linejoin:miter;stroke-opacity:1" />
      <path
         inkscape:connector-curvature="0"
         id="path2114-1-9-7"
         d="m -245.83563,117.52335 -1.05833,1.05833 1.05833,1.05834 h 5.29167 l 1.05833,-1.05834 -1.05833,-1.05833 z"
         style="fill:#165016;stroke:none;stroke-width:0.26458332px;stroke-linecap:butt;stroke-linejoin:miter;stroke-opacity:1" />
    </g>
    <g
       id="g2512"
       style="fill:#00ff00">
      <path
         inkscape:connector-curvature="0"
         id="path2114-1-71-7"
         d="m -231.01896,112.23169 -1.05833,-1.05833 -1.05834,1.05833 v 5.29167 l 1.05834,1.05833 1.05833,-1.05833 z"
         style="fill:#00ff00;stroke:none;stroke-width:0.26458332px;stroke-linecap:butt;stroke-linejoin:miter;stroke-opacity:1" />
      <path
         inkscape:connector-curvature="0"
         id="path2114-1-1-3"
         d="m -238.4273,117.52335 -1.05833,1.05833 1.05833,1.05834 h 5.29167 l 1.05833,-1.05834 -1.05833,-1.05833 z"
         style="fill:#00ff00;stroke:none;stroke-width:0.26458332px;stroke-linecap:butt;stroke-linejoin:miter;stroke-opacity:1" />
    </g>
    <g
       id="g2517"
       style="fill:#ccff00;fill-opacity:1">
      <path
         inkscape:connector-curvature="0"
         id="path2114-1-7-6"
         d="m -231.01897,117.52335 -1.05833,1.05833 1.05833,1.05834 h 5.29167 l 1.05833,-1.05834 -1.05833,-1.05833 z"
         style="fill:#ccff00;fill-opacity:1;stroke:none;stroke-width:0.26458332px;stroke-linecap:butt;stroke-linejoin:miter;stroke-opacity:1" />
      <path
         id="path2114-5"
         d="m -253.24396,112.23168 -1.05833,-1.05833 v 1.05833 5.29167 1.05833 l 1.05833,-1.05833 z"
         style="fill:#ccff00;fill-opacity:1;stroke:none;stroke-width:0.26458332px;stroke-linecap:butt;stroke-linejoin:miter;stroke-opacity:1"
         inkscape:connector-curvature="0" />
      <path
         id="path2114-5-6"
         d="m -225.7273,112.23168 1.05833,-1.05833 v 1.05833 5.29167 1.05833 l -1.05833,-1.05833 z"
         style="fill:#ccff00;fill-opacity:1;stroke:none;stroke-width:0.26458332px;stroke-linecap:butt;stroke-linejoin:miter;stroke-opacity:1"
         inkscape:connector-curvature="0" />
    </g>
    <g
       id="g2521"
       style="fill:#000055">
      <path
         inkscape:connector-curvature="0"
         id="path2114-1-71-3"
         d="m -245.83562,119.64002 -1.05833,-1.05833 -1.05834,1.05833 v 5.29167 l 1.05834,1.05833 1.05833,-1.05833 z"
         style="fill:#000055;stroke:none;stroke-width:0.26458332px;stroke-linecap:butt;stroke-linejoin:miter;stroke-opacity:1" />
      <path
         inkscape:connector-curvature="0"
         id="path2114-1-76-8"
         d="m -253.24396,124.93169 -1.05833,1.05833 1.05833,1.05834 h 5.29167 l 1.05833,-1.05834 -1.05833,-1.05833 z"
         style="fill:#000055;stroke:none;stroke-width:0.26458332px;stroke-linecap:butt;stroke-linejoin:miter;stroke-opacity:1" />
    </g>
    <g
       id="g2525"
       style="fill:#003380">
      <path
         inkscape:connector-curvature="0"
         id="path2114-1-71-9-9"
         d="m -238.42729,119.64002 -1.05833,-1.05833 -1.05834,1.05833 v 5.29167 l 1.05834,1.05833 1.05833,-1.05833 z"
         style="fill:#003380;stroke:none;stroke-width:0.26458332px;stroke-linecap:butt;stroke-linejoin:miter;stroke-opacity:1" />
      <path
         inkscape:connector-curvature="0"
         id="path2114-1-9-7-1"
         d="m -245.83563,124.93169 -1.05833,1.05833 1.05833,1.05834 h 5.29167 l 1.05833,-1.05834 -1.05833,-1.05833 z"
         style="fill:#003380;stroke:none;stroke-width:0.26458332px;stroke-linecap:butt;stroke-linejoin:miter;stroke-opacity:1" />
    </g>
    <g
       id="g2529"
       style="fill:#0088aa">
      <path
         inkscape:connector-curvature="0"
         id="path2114-1-71-7-4"
         d="m -231.01896,119.64003 -1.05833,-1.05833 -1.05834,1.05833 v 5.29167 l 1.05834,1.05833 1.05833,-1.05833 z"
         style="fill:#0088aa;stroke:none;stroke-width:0.26458332px;stroke-linecap:butt;stroke-linejoin:miter;stroke-opacity:1" />
      <path
         inkscape:connector-curvature="0"
         id="path2114-1-1-3-2"
         d="m -238.4273,124.93169 -1.05833,1.05833 1.05833,1.05834 h 5.29167 l 1.05833,-1.05834 -1.05833,-1.05833 z"
         style="fill:#0088aa;stroke:none;stroke-width:0.26458332px;stroke-linecap:butt;stroke-linejoin:miter;stroke-opacity:1" />
    </g>
    <g
       id="g2556"
       style="fill:#00ffcc">
      <path
         id="path2114-5-3"
         d="m -253.24396,119.64002 -1.05833,-1.05833 v 1.05833 5.29167 1.05833 l 1.05833,-1.05833 z"
         style="fill:#00ffcc;stroke:none;stroke-width:0.26458332px;stroke-linecap:butt;stroke-linejoin:miter;stroke-opacity:1"
         inkscape:connector-curvature="0" />
      <path
         inkscape:connector-curvature="0"
         id="path2114-1-7-6-9"
         d="m -231.01897,124.93169 -1.05833,1.05833 1.05833,1.05834 h 5.29167 l 1.05833,-1.05834 -1.05833,-1.05833 z"
         style="fill:#00ffcc;stroke:none;stroke-width:0.26458332px;stroke-linecap:butt;stroke-linejoin:miter;stroke-opacity:1" />
      <path
         id="path2114-5-6-9"
         d="m -225.7273,119.64002 1.05833,-1.05833 v 1.05833 5.29167 1.05833 l -1.05833,-1.05833 z"
         style="fill:#00ffcc;stroke:none;stroke-width:0.26458332px;stroke-linecap:butt;stroke-linejoin:miter;stroke-opacity:1"
         inkscape:connector-curvature="0" />
    </g>
    <g
       id="g2487"
       style="fill:#782121;fill-opacity:1">
      <path
         inkscape:connector-curvature="0"
         id="path2114-1"
         d="m -253.24395,110.11502 -1.05833,1.05833 1.05833,1.05834 h 5.29167 l 1.05833,-1.05834 -1.05833,-1.05833 z"
         style="fill:#782121;fill-opacity:1;stroke:none;stroke-width:0.26458332px;stroke-linecap:butt;stroke-linejoin:miter;stroke-opacity:1" />
      <path
         inkscape:connector-curvature="0"
         id="path2114-1-71-3-8"
         d="m -245.83561,104.82334 -1.05833,-1.05833 -1.05834,1.05833 v 5.29167 l 1.05834,1.05833 1.05833,-1.05833 z"
         style="fill:#782121;fill-opacity:1;stroke:none;stroke-width:0.26458332px;stroke-linecap:butt;stroke-linejoin:miter;stroke-opacity:1" />
    </g>
    <g
       id="g2491"
       style="fill:#ff0000;fill-opacity:1">
      <path
         inkscape:connector-curvature="0"
         id="path2114-1-9"
         d="m -245.83562,110.11502 -1.05833,1.05833 1.05833,1.05834 h 5.29167 l 1.05833,-1.05834 -1.05833,-1.05833 z"
         style="fill:#ff0000;fill-opacity:1;stroke:none;stroke-width:0.26458332px;stroke-linecap:butt;stroke-linejoin:miter;stroke-opacity:1" />
      <path
         inkscape:connector-curvature="0"
         id="path2114-1-71-9-9-4"
         d="m -238.42728,104.82334 -1.05833,-1.05833 -1.05834,1.05833 v 5.29167 l 1.05834,1.05833 1.05833,-1.05833 z"
         style="fill:#ff0000;fill-opacity:1;stroke:none;stroke-width:0.26458332px;stroke-linecap:butt;stroke-linejoin:miter;stroke-opacity:1" />
    </g>
    <g
       id="g2495"
       style="fill:#ff6600;fill-opacity:1">
      <path
         inkscape:connector-curvature="0"
         id="path2114-1-1"
         d="m -238.42729,110.11502 -1.05833,1.05833 1.05833,1.05834 h 5.29167 l 1.05833,-1.05834 -1.05833,-1.05833 z"
         style="fill:#ff6600;fill-opacity:1;stroke:none;stroke-width:0.26458332px;stroke-linecap:butt;stroke-linejoin:miter;stroke-opacity:1" />
      <path
         inkscape:connector-curvature="0"
         id="path2114-1-71-7-4-8"
         d="m -231.01895,104.82335 -1.05833,-1.05833 -1.05834,1.05833 v 5.29167 l 1.05834,1.05833 1.05833,-1.05833 z"
         style="fill:#ff6600;fill-opacity:1;stroke:none;stroke-width:0.26458332px;stroke-linecap:butt;stroke-linejoin:miter;stroke-opacity:1" />
    </g>
    <g
       id="g2500"
       style="fill:#ffcc00;fill-opacity:1">
      <path
         inkscape:connector-curvature="0"
         id="path2114-1-7"
         d="m -231.01896,110.11502 -1.05833,1.05833 1.05833,1.05834 h 5.29167 l 1.05833,-1.05834 -1.05833,-1.05833 z"
         style="fill:#ffcc00;fill-opacity:1;stroke:none;stroke-width:0.26458332px;stroke-linecap:butt;stroke-linejoin:miter;stroke-opacity:1" />
      <path
         id="path2114-5-3-1"
         d="m -253.24395,104.82334 -1.05833,-1.05833 v 1.05833 5.29167 1.05833 l 1.05833,-1.05833 z"
         style="fill:#ffcc00;fill-opacity:1;stroke:none;stroke-width:0.26458332px;stroke-linecap:butt;stroke-linejoin:miter;stroke-opacity:1"
         inkscape:connector-curvature="0" />
      <path
         id="path2114-5-6-9-0"
         d="m -225.72729,104.82334 1.05833,-1.05833 v 1.05833 5.29167 1.05833 l -1.05833,-1.05833 z"
         style="fill:#ffcc00;fill-opacity:1;stroke:none;stroke-width:0.26458332px;stroke-linecap:butt;stroke-linejoin:miter;stroke-opacity:1"
         inkscape:connector-curvature="0" />
    </g>
    <g
       id="g2583"
       style="fill:#ffffff">
      <path
         inkscape:connector-curvature="0"
         id="path2114-1-71-3-6"
         d="m -245.83563,127.04835 -1.05833,-1.05833 -1.05834,1.05833 v 5.29167 l 1.05834,1.05833 1.05833,-1.05833 z"
         style="fill:#ffffff;stroke:none;stroke-width:0.26458332px;stroke-linecap:butt;stroke-linejoin:miter;stroke-opacity:1" />
      <path
         id="path2114-3"
         d="m -253.24397,132.34002 -1.05833,1.05833 h 1.05833 5.29167 1.05833 l -1.05833,-1.05833 z"
         style="fill:#ffffff;stroke:none;stroke-width:0.26458332px;stroke-linecap:butt;stroke-linejoin:miter;stroke-opacity:1"
         inkscape:connector-curvature="0" />
      <path
         id="path2114-3-4"
         d="m -253.24395,104.82334 -1.05833,-1.05833 h 1.05833 5.29167 1.05833 l -1.05833,1.05833 z"
         style="fill:#ffffff;stroke:none;stroke-width:0.26458332px;stroke-linecap:butt;stroke-linejoin:miter;stroke-opacity:1"
         inkscape:connector-curvature="0" />
    </g>
    <g
       id="g2576"
       style="fill:#000000">
      <path
         inkscape:connector-curvature="0"
         id="path2114-1-71-9-9-1"
         d="m -238.4273,127.04835 -1.05833,-1.05833 -1.05834,1.05833 v 5.29167 l 1.05834,1.05833 1.05833,-1.05833 z"
         style="fill:#000000;stroke:none;stroke-width:0.26458332px;stroke-linecap:butt;stroke-linejoin:miter;stroke-opacity:1" />
      <path
         id="path2114-0"
         d="m -245.83563,132.34002 -1.05833,1.05833 h 1.05833 5.29167 1.05833 l -1.05833,-1.05833 z"
         style="fill:#000000;stroke:none;stroke-width:0.26458332px;stroke-linecap:butt;stroke-linejoin:miter;stroke-opacity:1"
         inkscape:connector-curvature="0" />
      <path
         id="path2114-0-7"
         d="m -245.83561,104.82334 -1.05833,-1.05833 h 1.05833 5.29167 1.05833 l -1.05833,1.05833 z"
         style="fill:#000000;stroke:none;stroke-width:0.26458332px;stroke-linecap:butt;stroke-linejoin:miter;stroke-opacity:1"
         inkscape:connector-curvature="0" />
    </g>
    <g
       id="g2569"
       style="fill:#ff00cc">
      <path
         inkscape:connector-curvature="0"
         id="path2114-1-71-7-4-1"
         d="m -231.01897,127.04836 -1.05833,-1.05833 -1.05834,1.05833 v 5.29167 l 1.05834,1.05833 1.05833,-1.05833 z"
         style="fill:#ff00cc;stroke:none;stroke-width:0.26458332px;stroke-linecap:butt;stroke-linejoin:miter;stroke-opacity:1" />
      <path
         id="path2114-4"
         d="m -238.4273,132.34002 -1.05833,1.05833 h 1.05833 5.29167 1.05833 l -1.05833,-1.05833 z"
         style="fill:#ff00cc;stroke:none;stroke-width:0.26458332px;stroke-linecap:butt;stroke-linejoin:miter;stroke-opacity:1"
         inkscape:connector-curvature="0" />
      <path
         id="path2114-4-6"
         d="m -238.42728,104.82334 -1.05833,-1.05833 h 1.05833 5.29167 1.05833 l -1.05833,1.05833 z"
         style="fill:#ff00cc;stroke:none;stroke-width:0.26458332px;stroke-linecap:butt;stroke-linejoin:miter;stroke-opacity:1"
         inkscape:connector-curvature="0" />
    </g>
    <g
       id="g2562"
       style="fill:#7f2aff">
      <path
         id="path2114-5-3-5"
         d="m -253.24397,127.04835 -1.05833,-1.05833 v 1.05833 5.29167 1.05833 l 1.05833,-1.05833 z"
         style="fill:#7f2aff;stroke:none;stroke-width:0.26458332px;stroke-linecap:butt;stroke-linejoin:miter;stroke-opacity:1"
         inkscape:connector-curvature="0" />
      <path
         id="path2114-5-6-9-9"
         d="m -225.72731,127.04835 1.05833,-1.05833 v 1.05833 5.29167 1.05833 l -1.05833,-1.05833 z"
         style="fill:#7f2aff;stroke:none;stroke-width:0.26458332px;stroke-linecap:butt;stroke-linejoin:miter;stroke-opacity:1"
         inkscape:connector-curvature="0" />
      <path
         id="path2114-44"
         d="m -231.01897,132.34003 -1.05833,1.05834 h 1.05833 5.29167 1.05833 l -1.05833,-1.05834 z"
         style="fill:#7f2aff;stroke:none;stroke-width:0.26458332px;stroke-linecap:butt;stroke-linejoin:miter;stroke-opacity:1"
         inkscape:connector-curvature="0" />
      <path
         id="path2114-44-3"
         d="m -231.01895,104.82333 -1.05833,-1.05834 h 1.05833 5.29167 1.05833 l -1.05833,1.05834 z"
         style="fill:#7f2aff;stroke:none;stroke-width:0.26458332px;stroke-linecap:butt;stroke-linejoin:miter;stroke-opacity:1"
         inkscape:connector-curvature="0" />
    </g>
  </g>
</svg>
